<svg width="24" height="14" viewBox="0 0 24 14" fill="none" xmlns="http://www.w3.org/2000/svg">
<path d="M23.2103 10.9475C23.5004 11.2411 23.6625 11.6376 23.6613 12.0504C23.66 12.4631 23.4955 12.8586 23.2036 13.1505C22.9118 13.4424 22.5163 13.6069 22.1035 13.6081C21.6908 13.6094 21.2943 13.4473 21.0007 13.1572L12.0006 4.15728L3.00047 13.1572C2.70684 13.4473 2.31036 13.6094 1.8976 13.6081C1.48485 13.6069 1.08935 13.4424 0.797489 13.1505C0.505626 12.8586 0.341104 12.4631 0.339851 12.0504C0.338598 11.6376 0.500717 11.2411 0.790803 10.9475L10.8958 0.842831C11.1888 0.549848 11.5862 0.385254 12.0006 0.385254C12.4149 0.385254 12.8123 0.549848 13.1054 0.842831L23.2103 10.9475Z" fill="white"/>
</svg>
